<svg xmlns="http://www.w3.org/2000/svg" width="324.936" height="280.073" viewBox="0 0 324.936 280.073">
  <g id="Grupo_266" data-name="Grupo 266" transform="translate(-511.396 -91.618)">
    <g id="Grupo_39" data-name="Grupo 39" transform="translate(514.26 99.013)">
      <g id="Grupo_28" data-name="Grupo 28" transform="translate(222.349 152.893)">
        <path id="Trazado_64" data-name="Trazado 64" d="M664.548,196.854v36.905A110.533,110.533,0,0,1,650.925,249.6V196.854H650.9v-.125c-.063-.273-6.686-5.764-11.778-9.934v-2.3l6.161-1.594a11.721,11.721,0,0,1,7.566.587c1.068.462,2.179.9,3.29,1.257v4.821c5.094,4.17,8.321,6.894,8.384,7.167v.125Z" transform="translate(-639.126 -182.526)" fill="#606060" opacity="0.73"/>
      </g>
      <g id="Grupo_38" data-name="Grupo 38">
        <g id="Grupo_29" data-name="Grupo 29" transform="translate(1.888)">
          <path id="Trazado_65" data-name="Trazado 65" d="M514.091,95.812l32.212,75.58,23.543-16.106,13.644,19.825,2.462-33.443,28.493-17.362Z" transform="translate(-514.091 -95.812)" fill="#f7ca44"/>
          <path id="Trazado_66" data-name="Trazado 66" d="M563.613,143.564,534.85,163.248l23.543-16.106,13.644,19.825,2.462-33.443-45.4-27.04Z" transform="translate(-502.639 -87.668)" fill="#edb640"/>
          <path id="Trazado_67" data-name="Trazado 67" d="M573.9,141.721l-44.8-35.237,45.4,27.04Z" transform="translate(-502.639 -87.668)" fill="#e9a23e"/>
        </g>
        <g id="Grupo_30" data-name="Grupo 30" transform="translate(27.675 83.767)">
          <path id="Trazado_68" data-name="Trazado 68" d="M554.192,148.279c-.252-1.472-.575-2.941-.956-4.367l2.208-.591c.4,1.492.735,3.029,1,4.57Z" transform="translate(-510.003 -143.321)" fill="#f7ca44"/>
          <path id="Trazado_69" data-name="Trazado 69" d="M546.233,193.595a18.9,18.9,0,0,1-9.184-3.064l1.264-1.9a16.628,16.628,0,0,0,8.072,2.687Zm9.5-1.865-1.009-2.051a23.006,23.006,0,0,0,6.839-5.387l1.7,1.527A25.226,25.226,0,0,1,555.732,191.729Zm-25.046-8.5a18.853,18.853,0,0,1-1.97-8.308c0-.231,0-.462.014-.695l.026-.5,2.28.167-.021.418c-.009.2-.012.406-.012.6a16.561,16.561,0,0,0,1.733,7.3Zm88.47-.522-.012-2.287c2.98-.014,6.044-.136,9.109-.361l.167,2.28C625.3,182.569,622.186,182.693,619.155,182.707Zm-9.274-.3-1.462-.113c-2.811-.234-5.357-.55-7.784-.972l.388-2.252c2.363.407,4.844.716,7.587.945l1.43.108Zm27.751-1.04-.307-2.266c2.941-.4,5.972-.9,9.008-1.486l.434,2.245C643.688,180.454,640.615,180.961,637.632,181.367Zm-46.084-2.312a44.27,44.27,0,0,1-7.488-3.318c-.358-.2-.716-.411-1.07-.624l1.181-1.959c.335.2.67.4,1.01.589a42.053,42.053,0,0,0,7.1,3.149Zm-22.819-.91-1.982-1.139a51.551,51.551,0,0,0,3.771-8.153l2.149.774A53.539,53.539,0,0,1,568.728,178.146Zm87.077-.254-.539-2.222c2.86-.695,5.836-1.483,8.844-2.343l.631,2.2C661.7,176.395,658.695,177.19,655.8,177.892Zm17.768-5.064-.705-2.176q4.358-1.41,8.675-2.95l.763,2.156Q677.966,171.4,673.573,172.828Zm-98.217-3.013a63.463,63.463,0,0,0-6.808-4.478l-.765-.406,1.047-2.033c.271.141.545.286.815.432a66.017,66.017,0,0,1,7.056,4.637Zm-41.114-3.438-1.6-1.634a19.534,19.534,0,0,1,8.416-4.516l.767,2.156A17.809,17.809,0,0,0,534.242,166.376Zm25.189-4.464a36.331,36.331,0,0,0-7.925-.876l-.926.011-.057-2.285a38.679,38.679,0,0,1,9.408.92Zm15.652-1.347-2.252-.4a53.077,53.077,0,0,0,.813-8.953l2.287.011A55.322,55.322,0,0,1,575.083,160.565Z" transform="translate(-528.716 -137.299)" fill="#f7ca44"/>
          <path id="Trazado_70" data-name="Trazado 70" d="M621.142,161.6l-.813-2.137q2.134-.815,4.264-1.647l.83,2.13Q623.289,160.775,621.142,161.6Z" transform="translate(-458.798 -132.262)" fill="#f7ca44"/>
        </g>
        <path id="Trazado_71" data-name="Trazado 71" d="M662.6,201.918a2.286,2.286,0,0,1-.219-4.561,54.305,54.305,0,0,0,35.8-18.575,2.286,2.286,0,0,1,3.449,3,58.854,58.854,0,0,1-38.8,20.123C662.753,201.915,662.679,201.918,662.6,201.918Z" transform="translate(-400.602 -33.09)" fill="#e30613"/>
        <g id="Grupo_34" data-name="Grupo 34" transform="translate(74.814 64.183)">
          <g id="Grupo_33" data-name="Grupo 33">
            <path id="Trazado_72" data-name="Trazado 72" d="M714.773,218.413,635.112,265.39l-79.661-46.977a.4.4,0,0,1,.014-.129c.064-.3,4.461-3.969,11.166-9.415.065-.053.116-.1.182-.157,22-17.859,68.3-54.433,68.3-54.433s46.3,36.574,68.3,54.433c6.809,5.526,11.284,9.26,11.348,9.572A.4.4,0,0,1,714.773,218.413Z" transform="translate(-555.451 -115.374)" fill="#7a4c08"/>
            <g id="Grupo_31" data-name="Grupo 31" transform="translate(13.125)">
              <path id="Trazado_73" data-name="Trazado 73" d="M662.193,132.214h-85.95A13.348,13.348,0,0,0,562.9,145.563V275.515a13.347,13.347,0,0,0,13.347,13.347h107.7a13.348,13.348,0,0,0,13.349-13.347V167.31Z" transform="translate(-562.895 -132.214)" fill="#fff"/>
              <path id="Trazado_74" data-name="Trazado 74" d="M619.212,153.963a13.347,13.347,0,0,0,13.347,13.347h21.749l-35.1-35.1Z" transform="translate(-519.914 -132.214)" fill="#e6e8e8"/>
              <path id="Trazado_75" data-name="Trazado 75" d="M649.433,173.056h-71.15a3.832,3.832,0,0,0-3.831,3.831h0a3.832,3.832,0,0,0,3.831,3.831h71.15a3.83,3.83,0,0,0,3.83-3.831h0A3.83,3.83,0,0,0,649.433,173.056Z" transform="translate(-554.075 -101.044)" fill="#d9dbdb"/>
              <path id="Trazado_76" data-name="Trazado 76" d="M649.433,183.88h-71.15a3.832,3.832,0,0,0-3.831,3.831h0a3.832,3.832,0,0,0,3.831,3.831h71.15a3.83,3.83,0,0,0,3.83-3.831h0A3.83,3.83,0,0,0,649.433,183.88Z" transform="translate(-554.075 -92.783)" fill="#d9dbdb"/>
              <path id="Trazado_77" data-name="Trazado 77" d="M617.119,194.38H578.283a3.832,3.832,0,0,0-3.831,3.831h0a3.832,3.832,0,0,0,3.831,3.831h38.836a3.832,3.832,0,0,0,3.831-3.831h0A3.832,3.832,0,0,0,617.119,194.38Z" transform="translate(-554.075 -84.77)" fill="#d9dbdb"/>
            </g>
            <g id="Grupo_32" data-name="Grupo 32" transform="translate(0.009 103.037)">
              <path id="Trazado_78" data-name="Trazado 78" d="M714.778,190.652v76.424a9.734,9.734,0,0,1-9.708,9.706H565.138a9.711,9.711,0,0,1-9.682-9.706V190.652l79.661,46.968Z" transform="translate(-555.456 -190.652)" fill="#f7ca44"/>
              <path id="Trazado_79" data-name="Trazado 79" d="M710.925,259.971,659.653,208.7,633.958,223.85,608.25,208.694l-51.275,51.275a9.62,9.62,0,0,0,7,3.043H703.911A9.655,9.655,0,0,0,710.925,259.971Z" transform="translate(-554.297 -176.883)" fill="#edb640"/>
            </g>
          </g>
        </g>
        <g id="Grupo_37" data-name="Grupo 37" transform="translate(207.216 62.071)">
          <g id="Grupo_36" data-name="Grupo 36">
            <path id="Trazado_80" data-name="Trazado 80" d="M673.561,131.254a48.058,48.058,0,0,0-42.893,44.136,47.528,47.528,0,0,0,8.394,30.658,11.6,11.6,0,0,1,1.106,11.062l-3.782,9.105,15.46-4.008a11.653,11.653,0,0,1,7.568.585,47.858,47.858,0,1,0,14.148-91.54Z" transform="translate(-630.544 -131.016)" fill="#e30613"/>
            <g id="Grupo_35" data-name="Grupo 35" transform="translate(22.813 27.668)">
              <path id="Trazado_81" data-name="Trazado 81" d="M669.71,189.864l2.631-2.631s-2.089-4.925,6.668-13.226c5.214-4.942,6.379-9.726,5.956-13.638a13.674,13.674,0,0,0-11.988-11.988c-3.911-.423-8.7.742-13.638,5.956-8.3,8.758-13.226,6.668-13.226,6.668l-2.631,2.631Z" transform="translate(-643.482 -145.492)" fill="#fff"/>
              <path id="Trazado_82" data-name="Trazado 82" d="M647.454,162.763a7.247,7.247,0,0,0,10.13,10.13Z" transform="translate(-641.52 -134.456)" fill="#fff"/>
              <path id="Trazado_83" data-name="Trazado 83" d="M670.945,152.791l-1.638,1.638a15.8,15.8,0,0,0-5.048-5.022l1.652-1.652a3.56,3.56,0,1,1,5.034,5.036Z" transform="translate(-627.625 -146.708)" fill="#fff"/>
            </g>
          </g>
          <path id="Trazado_84" data-name="Trazado 84" d="M675.243,131.042a41.335,41.335,0,1,1-42.253,67.576,48.108,48.108,0,0,0,4.205,7.423A11.6,11.6,0,0,1,638.3,217.1l-3.782,9.105,15.46-4.008a11.653,11.653,0,0,1,7.568.585,47.848,47.848,0,1,0,17.7-91.744Z" transform="translate(-628.677 -131.009)" fill="#c21011"/>
        </g>
        <path id="Trazado_85" data-name="Trazado 85" d="M517.64,109.15l10.449,23.976a2.41,2.41,0,0,1-1.255,3.172l-.372.162a2.413,2.413,0,0,1-3.176-1.277L513.21,111.046a2.408,2.408,0,0,1,1.384-3.195h0A2.41,2.41,0,0,1,517.64,109.15Z" transform="translate(-513.02 -86.739)" fill="#ffb031"/>
      </g>
    </g>
    <g id="Grupo_40" data-name="Grupo 40" transform="translate(511.396 91.618)">
      <path id="Trazado_86" data-name="Trazado 86" d="M542.179,204.22a7.681,7.681,0,1,0,7.682,7.682A7.682,7.682,0,0,0,542.179,204.22Zm0,10.791a3.109,3.109,0,1,1,3.11-3.108A3.108,3.108,0,0,1,542.179,215.011Z" transform="translate(-493.765 -5.681)" fill="#ff9433"/>
      <path id="Trazado_87" data-name="Trazado 87" d="M658.926,221.85a7.681,7.681,0,1,0,7.682,7.68A7.681,7.681,0,0,0,658.926,221.85Zm0,10.791a3.109,3.109,0,1,1,3.11-3.11A3.109,3.109,0,0,1,658.926,232.641Z" transform="translate(-404.665 7.774)" fill="#f7ca44"/>
      <path id="Trazado_88" data-name="Trazado 88" d="M693.791,154.182a5.882,5.882,0,1,0,5.882,5.882A5.883,5.883,0,0,0,693.791,154.182Zm0,8.262a2.38,2.38,0,1,1,2.38-2.38A2.379,2.379,0,0,1,693.791,162.444Z" transform="translate(-376.683 -43.869)" fill="#f7ca44"/>
      <path id="Trazado_89" data-name="Trazado 89" d="M635.2,100.82a6.219,6.219,0,1,0,6.219,6.219A6.22,6.22,0,0,0,635.2,100.82Zm0,8.737a2.517,2.517,0,1,1,2.518-2.518A2.517,2.517,0,0,1,635.2,109.557Z" transform="translate(-421.657 -84.595)" fill="#f7ca44"/>
      <path id="Trazado_90" data-name="Trazado 90" d="M522.519,183a6.538,6.538,0,1,0,6.54,6.538A6.538,6.538,0,0,0,522.519,183Z" transform="translate(-507.896 -21.877)" fill="#ffb031"/>
      <path id="Trazado_91" data-name="Trazado 91" d="M670.522,195.274a4.755,4.755,0,1,0,4.755,4.755A4.756,4.756,0,0,0,670.522,195.274Z" transform="translate(-393.581 -12.508)" fill="#f7ca44"/>
      <path id="Trazado_92" data-name="Trazado 92" d="M582.156,101.929a6.95,6.95,0,1,0,6.951,6.95A6.951,6.951,0,0,0,582.156,101.929Z" transform="translate(-462.696 -83.748)" fill="#f7ca44"/>
      <path id="Trazado_93" data-name="Trazado 93" d="M602.443,244.717a5.065,5.065,0,1,0,5.066,5.066A5.064,5.064,0,0,0,602.443,244.717Z" transform="translate(-445.774 25.226)" fill="#f7ca44"/>
      <path id="Trazado_94" data-name="Trazado 94" d="M658.426,117.133a5.945,5.945,0,1,0,5.944,5.945A5.945,5.945,0,0,0,658.426,117.133Z" transform="translate(-403.72 -72.145)" fill="#f7ca44"/>
      <circle id="Elipse_47" data-name="Elipse 47" cx="3.384" cy="3.384" r="3.384" transform="translate(40.765 91.204)" fill="#ffb031"/>
      <path id="Trazado_95" data-name="Trazado 95" d="M694.909,137.37a5.772,5.772,0,1,0,5.773,5.773A5.772,5.772,0,0,0,694.909,137.37Z" transform="translate(-375.746 -56.7)" fill="#f7ca44"/>
      <circle id="Elipse_48" data-name="Elipse 48" cx="3.683" cy="3.683" r="3.683" transform="translate(7.696 111.216)" fill="#edb640"/>
      <path id="Trazado_96" data-name="Trazado 96" d="M609.455,97.449l2.313-2.313a2.062,2.062,0,1,0-2.916-2.916l-2.313,2.313-2.313-2.313a2.062,2.062,0,0,0-2.916,2.916l2.313,2.313-2.313,2.313a2.062,2.062,0,0,0,2.916,2.916l2.313-2.313,2.313,2.313a2.062,2.062,0,0,0,2.916-2.916Z" transform="translate(-443.234 -91.618)" fill="#f7ca44"/>
      <path id="Trazado_97" data-name="Trazado 97" d="M520.143,137.1l2.313-2.313a2.062,2.062,0,0,0-2.916-2.916l-2.313,2.313-2.313-2.313A2.062,2.062,0,0,0,512,134.786l2.313,2.313L512,139.412a2.062,2.062,0,0,0,2.916,2.916l2.313-2.313,2.313,2.313a2.062,2.062,0,0,0,2.916-2.916Z" transform="translate(-511.396 -61.357)" fill="#f7ca44"/>
      <path id="Trazado_98" data-name="Trazado 98" d="M674.311,216.83l1.959-1.959a1.747,1.747,0,0,0-2.47-2.47l-1.959,1.959-1.959-1.959a1.747,1.747,0,0,0-2.47,2.47l1.959,1.959-1.959,1.959a1.747,1.747,0,0,0,2.47,2.47l1.959-1.959,1.959,1.959a1.747,1.747,0,1,0,2.47-2.47Z" transform="translate(-392.715 0.174)" fill="#f7ca44"/>
    </g>
  </g>
</svg>
